<svg width="302" height="306" viewBox="0 0 302 306" fill="none" xmlns="http://www.w3.org/2000/svg">
<g filter="url(#filter0_i_17_28)">
<rect x="54" y="22.23" width="176.393" height="173.529" rx="16" transform="rotate(-7.23998 54 22.23)" fill="url(#paint0_linear_17_28)"/>
</g>
<path d="M9.05114 294H1.14205L13.1932 259.091H22.7045L34.7386 294H26.8295L18.0852 267.068H17.8125L9.05114 294ZM8.55682 280.278H27.2386V286.04H8.55682V280.278ZM40.5876 294V289.67L53.4058 273.801V273.614H41.0308V267.818H62.1501V272.54L50.116 288.017V288.205H62.5933V294H40.5876ZM86.8556 282.852V267.818H94.117V294H87.1454V289.244H86.8727C86.2818 290.778 85.2988 292.011 83.9238 292.943C82.5602 293.875 80.8954 294.341 78.9295 294.341C77.1795 294.341 75.6397 293.943 74.3102 293.148C72.9806 292.352 71.9408 291.222 71.1908 289.756C70.4522 288.29 70.0772 286.534 70.0658 284.489V267.818H77.3272V283.193C77.3386 284.739 77.7533 285.96 78.5715 286.858C79.3897 287.756 80.4863 288.205 81.8613 288.205C82.7363 288.205 83.5545 288.006 84.3158 287.608C85.0772 287.199 85.6908 286.597 86.1568 285.801C86.634 285.006 86.867 284.023 86.8556 282.852ZM101.845 294V267.818H108.885V272.386H109.158C109.635 270.761 110.436 269.534 111.561 268.705C112.686 267.864 113.982 267.443 115.448 267.443C115.811 267.443 116.203 267.466 116.624 267.511C117.044 267.557 117.413 267.619 117.732 267.699V274.142C117.391 274.04 116.919 273.949 116.317 273.869C115.715 273.79 115.163 273.75 114.663 273.75C113.595 273.75 112.641 273.983 111.8 274.449C110.97 274.903 110.311 275.54 109.823 276.358C109.345 277.176 109.107 278.119 109.107 279.188V294H101.845ZM134.119 294.511C131.426 294.511 129.108 293.966 127.164 292.875C125.233 291.773 123.744 290.216 122.698 288.205C121.653 286.182 121.13 283.79 121.13 281.028C121.13 278.335 121.653 275.972 122.698 273.938C123.744 271.903 125.216 270.318 127.113 269.182C129.022 268.045 131.261 267.477 133.829 267.477C135.556 267.477 137.164 267.756 138.653 268.312C140.153 268.858 141.46 269.682 142.573 270.784C143.698 271.886 144.573 273.273 145.198 274.943C145.823 276.602 146.136 278.545 146.136 280.773V282.767H124.028V278.267H139.301C139.301 277.222 139.073 276.295 138.619 275.489C138.164 274.682 137.534 274.051 136.727 273.597C135.931 273.131 135.005 272.898 133.948 272.898C132.846 272.898 131.869 273.153 131.017 273.665C130.176 274.165 129.517 274.841 129.039 275.693C128.562 276.534 128.318 277.472 128.306 278.506V282.784C128.306 284.08 128.545 285.199 129.022 286.142C129.511 287.085 130.198 287.812 131.085 288.324C131.971 288.835 133.022 289.091 134.238 289.091C135.045 289.091 135.784 288.977 136.454 288.75C137.125 288.523 137.698 288.182 138.176 287.727C138.653 287.273 139.017 286.716 139.267 286.057L145.983 286.5C145.642 288.114 144.943 289.523 143.886 290.727C142.841 291.92 141.488 292.852 139.829 293.523C138.181 294.182 136.278 294.511 134.119 294.511Z" fill="#0066FA"/>
<path d="M173.965 294L164.42 259.091H168.715L176.011 287.523H176.351L183.783 259.091H188.556L195.988 287.523H196.329L203.624 259.091H207.92L198.374 294H194.011L186.306 266.182H186.033L178.329 294H173.965ZM217.908 294.614C216.249 294.614 214.743 294.301 213.391 293.676C212.039 293.04 210.965 292.125 210.17 290.932C209.374 289.727 208.976 288.273 208.976 286.568C208.976 285.068 209.272 283.852 209.863 282.92C210.454 281.977 211.243 281.239 212.232 280.705C213.221 280.17 214.312 279.773 215.505 279.511C216.709 279.239 217.92 279.023 219.136 278.864C220.726 278.659 222.016 278.506 223.005 278.403C224.005 278.29 224.732 278.102 225.187 277.841C225.653 277.58 225.886 277.125 225.886 276.477V276.341C225.886 274.659 225.425 273.352 224.505 272.42C223.596 271.489 222.215 271.023 220.363 271.023C218.442 271.023 216.937 271.443 215.846 272.284C214.755 273.125 213.988 274.023 213.545 274.977L209.726 273.614C210.408 272.023 211.317 270.784 212.454 269.898C213.601 269 214.851 268.375 216.204 268.023C217.567 267.659 218.908 267.477 220.226 267.477C221.067 267.477 222.033 267.58 223.124 267.784C224.226 267.977 225.289 268.381 226.312 268.994C227.346 269.608 228.204 270.534 228.886 271.773C229.567 273.011 229.908 274.67 229.908 276.75V294H225.886V290.455H225.681C225.408 291.023 224.954 291.631 224.317 292.278C223.681 292.926 222.834 293.477 221.778 293.932C220.721 294.386 219.431 294.614 217.908 294.614ZM218.522 291C220.113 291 221.454 290.688 222.545 290.062C223.647 289.438 224.476 288.631 225.033 287.642C225.601 286.653 225.886 285.614 225.886 284.523V280.841C225.715 281.045 225.34 281.233 224.761 281.403C224.192 281.562 223.533 281.705 222.783 281.83C222.045 281.943 221.323 282.045 220.618 282.136C219.925 282.216 219.363 282.284 218.931 282.341C217.886 282.477 216.908 282.699 215.999 283.006C215.101 283.301 214.374 283.75 213.817 284.352C213.272 284.943 212.999 285.75 212.999 286.773C212.999 288.17 213.516 289.227 214.55 289.943C215.596 290.648 216.92 291 218.522 291ZM241.273 259.091V294H237.251V259.091H241.273ZM252.664 259.091V294H248.641V259.091H252.664ZM271.009 294.545C268.486 294.545 266.31 293.989 264.481 292.875C262.663 291.75 261.259 290.182 260.27 288.17C259.293 286.148 258.805 283.795 258.805 281.114C258.805 278.432 259.293 276.068 260.27 274.023C261.259 271.966 262.634 270.364 264.395 269.216C266.168 268.057 268.236 267.477 270.6 267.477C271.964 267.477 273.31 267.705 274.64 268.159C275.969 268.614 277.18 269.352 278.27 270.375C279.361 271.386 280.231 272.727 280.878 274.398C281.526 276.068 281.85 278.125 281.85 280.568V282.273H261.668V278.795H277.759C277.759 277.318 277.464 276 276.873 274.841C276.293 273.682 275.464 272.767 274.384 272.097C273.316 271.426 272.055 271.091 270.6 271.091C268.998 271.091 267.611 271.489 266.441 272.284C265.282 273.068 264.39 274.091 263.765 275.352C263.14 276.614 262.827 277.966 262.827 279.409V281.727C262.827 283.705 263.168 285.381 263.85 286.756C264.543 288.119 265.503 289.159 266.731 289.875C267.958 290.58 269.384 290.932 271.009 290.932C272.066 290.932 273.02 290.784 273.873 290.489C274.736 290.182 275.481 289.727 276.106 289.125C276.731 288.511 277.214 287.75 277.555 286.841L281.441 287.932C281.032 289.25 280.344 290.409 279.378 291.409C278.413 292.398 277.219 293.17 275.799 293.727C274.378 294.273 272.782 294.545 271.009 294.545ZM299.356 267.818V271.227H285.788V267.818H299.356ZM289.742 261.545H293.765V286.5C293.765 287.636 293.93 288.489 294.259 289.057C294.6 289.614 295.032 289.989 295.555 290.182C296.089 290.364 296.651 290.455 297.242 290.455C297.685 290.455 298.049 290.432 298.333 290.386C298.617 290.33 298.844 290.284 299.015 290.25L299.833 293.864C299.56 293.966 299.18 294.068 298.691 294.17C298.202 294.284 297.583 294.341 296.833 294.341C295.697 294.341 294.583 294.097 293.492 293.608C292.413 293.119 291.515 292.375 290.799 291.375C290.094 290.375 289.742 289.114 289.742 287.591V261.545Z" fill="white"/>
<rect x="54" y="22" width="194" height="192" rx="16" fill="url(#paint1_linear_17_28)"/>
<g filter="url(#filter1_d_17_28)">
<path d="M144.374 22H122.856L54 126.895V148.364L95.1907 214H110.56L134.537 175.355L157.899 214H172.654L212 144.07H184.949L166.506 175.355L144.374 139.163H125.315L102.568 178.422L78.5914 137.323L134.537 54.5112L172.654 109.105C172.654 101.254 184.54 93.1565 190.482 90.0895L144.374 22Z" fill="#FFFBFB"/>
</g>
<g filter="url(#filter2_d_17_28)">
<path d="M164 122C164 102.118 180.118 86 200 86H258V161H200C180.118 161 164 144.882 164 125V122Z" fill="url(#paint2_linear_17_28)"/>
</g>
<path d="M206.5 102.875C202.402 102.875 198.396 104.114 194.989 106.435C191.582 108.756 188.927 112.056 187.358 115.916C185.79 119.776 185.38 124.023 186.179 128.121C186.979 132.219 188.952 135.983 191.85 138.938C194.747 141.892 198.439 143.904 202.458 144.719C206.477 145.534 210.643 145.116 214.429 143.517C218.215 141.918 221.45 139.21 223.727 135.736C226.004 132.262 227.219 128.178 227.219 124C227.213 118.399 225.028 113.029 221.144 109.069C217.26 105.108 211.993 102.881 206.5 102.875ZM206.5 141.875C203.033 141.875 199.643 140.827 196.76 138.863C193.877 136.898 191.63 134.107 190.303 130.84C188.976 127.574 188.629 123.98 189.306 120.513C189.982 117.045 191.652 113.86 194.104 111.36C196.555 108.861 199.679 107.158 203.08 106.468C206.481 105.779 210.005 106.133 213.209 107.486C216.412 108.839 219.15 111.13 221.077 114.069C223.003 117.009 224.031 120.465 224.031 124C224.026 128.739 222.177 133.283 218.891 136.634C215.604 139.985 211.148 141.87 206.5 141.875ZM214.469 120.75C214.469 119.386 214.133 118.045 213.491 116.848C212.849 115.652 211.922 114.64 210.795 113.905C209.669 113.17 208.379 112.735 207.045 112.642C205.71 112.549 204.374 112.8 203.16 113.371C201.946 113.943 200.892 114.817 200.096 115.913C199.3 117.009 198.788 118.291 198.605 119.642C198.423 120.993 198.578 122.369 199.054 123.643C199.531 124.917 200.314 126.049 201.332 126.933L198.667 133.094C198.56 133.341 198.515 133.612 198.536 133.882C198.558 134.151 198.645 134.411 198.79 134.637C198.934 134.864 199.132 135.05 199.366 135.179C199.599 135.308 199.86 135.375 200.125 135.375H212.875C213.14 135.375 213.401 135.308 213.634 135.179C213.868 135.05 214.066 134.864 214.21 134.637C214.355 134.411 214.442 134.151 214.464 133.882C214.485 133.612 214.44 133.341 214.333 133.094L211.668 126.933C212.544 126.169 213.248 125.221 213.732 124.154C214.215 123.087 214.467 121.926 214.469 120.75ZM208.229 127.047L210.421 132.135H202.569L204.761 127.047C204.923 126.68 204.947 126.265 204.826 125.882C204.706 125.499 204.45 125.175 204.109 124.973C203.198 124.436 202.485 123.608 202.083 122.617C201.68 121.625 201.609 120.526 201.882 119.489C202.154 118.453 202.754 117.537 203.589 116.883C204.424 116.23 205.447 115.876 206.5 115.876C207.553 115.876 208.576 116.23 209.411 116.883C210.246 117.537 210.846 118.453 211.118 119.489C211.391 120.526 211.32 121.625 210.917 122.617C210.515 123.608 209.802 124.436 208.891 124.973C208.548 125.173 208.29 125.497 208.168 125.88C208.046 126.263 208.068 126.679 208.229 127.047Z" fill="#FFFBFB"/>
<defs>
<filter id="filter0_i_17_28" x="55.8871" y="-6.11292" width="204.481" height="198.601" filterUnits="userSpaceOnUse" color-interpolation-filters="sRGB">
<feFlood flood-opacity="0" result="BackgroundImageFix"/>
<feBlend mode="normal" in="SourceGraphic" in2="BackgroundImageFix" result="shape"/>
<feColorMatrix in="SourceAlpha" type="matrix" values="0 0 0 0 0 0 0 0 0 0 0 0 0 0 0 0 0 0 127 0" result="hardAlpha"/>
<feMorphology radius="3" operator="erode" in="SourceAlpha" result="effect1_innerShadow_17_28"/>
<feOffset dx="66" dy="-8"/>
<feGaussianBlur stdDeviation="4.2"/>
<feComposite in2="hardAlpha" operator="arithmetic" k2="-1" k3="1"/>
<feColorMatrix type="matrix" values="0 0 0 0 0 0 0 0 0 0 0 0 0 0 0 0 0 0 0.25 0"/>
<feBlend mode="normal" in2="shape" result="effect1_innerShadow_17_28"/>
</filter>
<filter id="filter1_d_17_28" x="54" y="10" width="184" height="218" filterUnits="userSpaceOnUse" color-interpolation-filters="sRGB">
<feFlood flood-opacity="0" result="BackgroundImageFix"/>
<feColorMatrix in="SourceAlpha" type="matrix" values="0 0 0 0 0 0 0 0 0 0 0 0 0 0 0 0 0 0 127 0" result="hardAlpha"/>
<feOffset dx="13" dy="1"/>
<feGaussianBlur stdDeviation="6.5"/>
<feComposite in2="hardAlpha" operator="out"/>
<feColorMatrix type="matrix" values="0 0 0 0 0 0 0 0 0 0 0 0 0 0 0 0 0 0 0.25 0"/>
<feBlend mode="normal" in2="BackgroundImageFix" result="effect1_dropShadow_17_28"/>
<feBlend mode="normal" in="SourceGraphic" in2="effect1_dropShadow_17_28" result="shape"/>
</filter>
<filter id="filter2_d_17_28" x="152.4" y="72.4" width="105.6" height="88.6" filterUnits="userSpaceOnUse" color-interpolation-filters="sRGB">
<feFlood flood-opacity="0" result="BackgroundImageFix"/>
<feColorMatrix in="SourceAlpha" type="matrix" values="0 0 0 0 0 0 0 0 0 0 0 0 0 0 0 0 0 0 127 0" result="hardAlpha"/>
<feMorphology radius="4" operator="erode" in="SourceAlpha" result="effect1_dropShadow_17_28"/>
<feOffset dx="-8" dy="-10"/>
<feGaussianBlur stdDeviation="3.8"/>
<feComposite in2="hardAlpha" operator="out"/>
<feColorMatrix type="matrix" values="0 0 0 0 0 0 0 0 0 0 0 0 0 0 0 0 0 0 0.25 0"/>
<feBlend mode="normal" in2="BackgroundImageFix" result="effect1_dropShadow_17_28"/>
<feBlend mode="normal" in="SourceGraphic" in2="effect1_dropShadow_17_28" result="shape"/>
</filter>
<linearGradient id="paint0_linear_17_28" x1="204.025" y1="37.8834" x2="106.192" y2="179.822" gradientUnits="userSpaceOnUse">
<stop stop-color="#02C1FD"/>
<stop offset="0.567308" stop-color="#0290F7"/>
<stop offset="1" stop-color="#024DE0"/>
</linearGradient>
<linearGradient id="paint1_linear_17_28" x1="219" y1="39.3196" x2="110.524" y2="195.758" gradientUnits="userSpaceOnUse">
<stop stop-color="#02C1FD"/>
<stop offset="0.567308" stop-color="#0290F7"/>
<stop offset="1" stop-color="#024DE0"/>
</linearGradient>
<linearGradient id="paint2_linear_17_28" x1="243.948" y1="92.7655" x2="205.407" y2="161.711" gradientUnits="userSpaceOnUse">
<stop stop-color="#02C1FD"/>
<stop offset="0.567308" stop-color="#0290F7"/>
<stop offset="1" stop-color="#024DE0"/>
</linearGradient>
</defs>
</svg>
